HIERARCHY
ROOT hip
{
	OFFSET 0.000000 0.000000 0.000000 
	CHANNELS 6 Xposition Yposition Zposition Xrotation Zrotation Yrotation
	JOINT abdomen
	{
		OFFSET 0.000000 3.402643 0.000000 
		CHANNELS 3 Xrotation Zrotation Yrotation
		JOINT chest
		{
			OFFSET 0.000000 8.438565 -0.680529 
			CHANNELS 3 Xrotation Zrotation Yrotation
			JOINT neck
			{
				OFFSET 0.000000 10.207942 -0.272212 
				CHANNELS 3 Xrotation Zrotation Yrotation
				JOINT head
				{
					OFFSET 0.000000 3.130431 0.000000 
					CHANNELS 3 Xrotation Zrotation Yrotation
					End Site
					{
						OFFSET 0.000000 3.130435 0.000000 
					}
				}
			}
			JOINT lCollar
			{
				OFFSET 3.470700 6.669187 -0.816635 
				CHANNELS 3 Yrotation Zrotation Xrotation
				JOINT lShldr
				{
					OFFSET 3.198488 0.000000 0.000000 
					CHANNELS 3 Zrotation Yrotation Xrotation
					JOINT lForeArm
					{
						OFFSET 10.139888 0.000000 0.000000 
						CHANNELS 3 Yrotation Zrotation Xrotation
						JOINT lHand
						{
							OFFSET 8.370511 0.000000 0.000000 
							CHANNELS 3 Zrotation Yrotation Xrotation
							End Site
							{
								OFFSET 4.083176 0.000000 0.000000 
							}
						}
					}
				}
			}
			JOINT rCollar
			{
				OFFSET -3.470700 6.669187 -0.816635 
				CHANNELS 3 Yrotation Zrotation Xrotation
				JOINT rShldr
				{
					OFFSET -3.198488 0.000000 0.000000 
					CHANNELS 3 Zrotation Yrotation Xrotation
					JOINT rForeArm
					{
						OFFSET -10.139888 0.000000 0.000000 
						CHANNELS 3 Yrotation Zrotation Xrotation
						JOINT rHand
						{
							OFFSET -8.370511 0.000000 0.000000 
							CHANNELS 3 Zrotation Yrotation Xrotation
							End Site
							{
								OFFSET -4.083176 0.000000 0.000000 
							}
						}
					}
				}
			}
		}
	}
	JOINT lThigh
	{
		OFFSET 5.308129 -1.633274 1.361059 
		CHANNELS 3 Xrotation Zrotation Yrotation
		JOINT lShin
		{
			OFFSET -2.041588 -20.007561 0.000000 
			CHANNELS 3 Xrotation Zrotation Yrotation
			JOINT lFoot
			{
				OFFSET 0.000000 -19.190928 -1.224953 
				CHANNELS 3 Xrotation Yrotation Zrotation
				End Site
				{
					OFFSET 0.000000 -2.449906 4.627600 
				}
			}
		}
	}
	JOINT rThigh
	{
		OFFSET -5.308129 -1.633274 1.361059 
		CHANNELS 3 Xrotation Zrotation Yrotation
		JOINT rShin
		{
			OFFSET 2.041588 -20.007561 0.000000 
			CHANNELS 3 Xrotation Zrotation Yrotation
			JOINT rFoot
			{
				OFFSET 0.000000 -19.190928 -1.224953 
				CHANNELS 3 Xrotation Yrotation Zrotation
				End Site
				{
					OFFSET 0.000000 -2.449906 4.627600 
				}
			}
		}
	}
}
MOTION
Frames: 10
Frame Time: 0.033333
-12.763635 53.038078 9.494040 4.746094 2.089844 -34.452770 20.217306 -6.966342 -3.263264 -14.179687 15.917970 7.737053 51.553619 8.070152 2.616707 -37.558594 3.476562 -19.140625 2.000000 -2.000000 0.000000 -69.960938 22.031250 -12.968750 -128.448700 1.662474 -2.577291 -62.622330 7.417031 -10.920136 -2.000000 2.000000 0.000000 86.640625 -14.619141 -5.371094 52.205975 1.498803 -1.933524 5.696298 -53.381382 1.831335 -6.904149 16.657400 17.713196 35.076374 -4.665186 -3.118098 10.273489 18.434917 1.888262 0.131410 2.469983 -24.659979 7.933851 5.838527 0.717660 1.516104 -7.094005 -7.120511 
-13.122707 52.985340 9.846977 4.746094 2.275391 -35.487892 20.393089 -6.966342 -3.263264 -14.179687 15.917970 7.737053 51.553619 8.070152 2.616707 -37.763676 3.310547 -18.486328 2.000000 -2.000000 0.000000 -69.892578 21.953127 -12.789316 -128.448700 1.662474 -2.577291 -62.694088 7.890280 -10.474203 -2.000000 2.000000 0.000000 86.621094 -14.677733 -5.188020 52.007736 1.678340 -1.825264 5.352681 -53.505856 1.951572 -7.978097 17.350842 15.449424 31.375952 -4.971456 -2.835861 4.602984 17.049282 1.711792 0.288675 2.536910 -23.408043 7.574945 5.698690 0.649507 1.251359 -7.184591 -7.591086 
-13.482356 52.940147 10.256963 4.902344 2.451172 -36.523014 20.742975 -7.137602 -3.307919 -14.179687 15.917970 7.737053 51.553619 8.070152 2.616707 -38.115234 3.183594 -18.203125 2.000000 -2.000000 0.000000 -69.912109 22.207029 -12.584201 -128.448700 1.662474 -2.577291 -62.580364 8.011358 -10.603919 -2.000000 2.000000 0.000000 86.640625 -14.833986 -5.009766 51.831951 1.678340 -1.825264 4.822355 -54.039413 2.416828 -8.172757 17.396772 15.244506 31.366062 -4.971406 -2.835001 4.413085 17.261957 1.825832 0.927436 2.313645 -21.817450 7.958161 5.871328 0.730761 0.621977 -6.795364 -6.513972 
-13.827427 52.887413 10.682898 4.902344 2.451172 -37.411694 21.119083 -7.052008 -3.451862 -14.179687 15.917970 7.737053 51.553619 8.070152 2.616707 -38.476563 3.203125 -18.046877 2.000000 -2.000000 0.000000 -69.833984 22.148438 -12.363281 -128.448700 1.662474 -2.577291 -62.271778 7.593987 -10.908216 -2.000000 2.000000 0.000000 86.777344 -14.804686 -4.921875 51.502865 1.489054 -1.934093 4.485114 -54.857651 2.399132 -9.576989 15.635903 13.194800 24.443539 -5.253662 -2.833481 -2.166936 16.259977 3.058497 1.474793 2.265638 -20.601551 7.979686 5.856873 0.781450 0.073189 -6.934077 -6.089608 
-14.144608 52.834679 11.120598 5.097657 2.617188 -38.437057 21.294865 -7.052008 -3.451862 -14.003906 15.888671 7.971423 51.553619 8.070152 2.616707 -38.818359 3.261719 -17.880302 2.000000 -2.000000 0.000000 -69.785156 22.255859 -12.086143 -128.448700 1.662474 -2.577291 -62.076721 7.055547 -11.533155 -2.000000 2.000000 0.000000 87.031250 -14.882812 -5.439453 51.317318 1.489054 -1.934093 3.109510 -56.119888 3.102934 -11.881198 12.182252 10.891744 18.673367 -5.438364 -1.886650 -5.581448 14.201511 4.561249 1.883768 2.302168 -19.359806 7.974208 5.850048 0.711972 -0.436502 -6.918221 -5.873910 
-14.455309 52.766888 11.589565 5.263672 2.607422 -39.306190 21.505247 -6.975556 -3.600442 -13.994140 16.054689 8.010513 51.553619 8.070152 2.616707 -39.140629 3.466797 -17.685549 2.000000 -2.000000 0.000000 -69.794922 22.490232 -11.865233 -128.448700 1.662474 -2.577291 -61.927776 6.744496 -11.774305 -2.000000 2.000000 0.000000 87.158203 -15.078126 -5.849610 51.138165 1.618707 -1.809185 2.972482 -56.978676 3.010747 -13.187556 11.028678 8.768303 14.625476 -5.559167 -1.626173 -1.305268 13.163184 4.858445 2.330347 2.279698 -17.971838 7.967050 5.879999 0.605434 -1.160276 -6.975536 -5.483267 
-14.755943 52.714146 12.081828 5.625000 2.617188 -40.165569 21.857023 -6.978979 -3.591298 -13.994140 16.054689 8.010513 51.553619 8.070152 2.616707 -39.511719 3.486328 -17.714846 2.000000 -2.000000 0.000000 -69.794922 22.490232 -11.865233 -128.448700 1.662474 -2.577291 -61.917755 6.567935 -11.815029 -2.000000 2.000000 0.000000 87.626953 -15.146485 -6.428333 51.300179 1.658902 -1.660158 3.052238 -56.979031 2.259913 -14.489215 10.124298 7.004745 11.073993 -5.620956 -1.447758 4.246185 12.611363 4.764658 2.555031 2.134689 -16.553919 7.974715 6.054472 0.478919 -1.168931 -6.739914 -5.182477 
-15.035748 52.661407 12.623734 5.791016 2.792969 -41.035156 21.881084 -6.889978 -3.744413 -14.003906 15.888671 7.971423 51.553619 8.070152 2.616707 -39.658203 3.671875 -17.694685 2.000000 -2.000000 0.000000 -69.755859 22.353518 -11.865233 -128.287796 1.671225 -2.763588 -62.093727 6.557693 -11.800600 -2.000000 2.000000 0.000000 87.939453 -15.576173 -7.021483 51.300179 1.658902 -1.660158 3.884422 -56.543716 1.181427 -15.647465 9.448226 5.415851 8.246665 -5.721913 -1.148428 6.709590 12.852027 5.105765 2.922948 2.054667 -15.501060 7.774248 6.185472 0.457999 -1.504230 -6.617432 -4.667834 
-15.323998 52.578537 13.212504 5.976563 2.792969 -41.904293 21.864344 -6.732395 -3.663248 -14.179687 15.917970 7.912834 51.553619 8.070152 2.616707 -39.833984 3.857421 -17.684893 2.000000 -2.000000 0.000000 -69.765625 22.333982 -11.923828 -128.287796 1.671225 -2.763588 -62.042522 6.603877 -11.635878 -2.000000 2.000000 0.000000 88.417969 -16.132813 -7.050781 51.475945 1.668651 -1.659589 4.020460 -56.388218 1.145299 -16.008045 8.159252 5.712379 6.147350 -5.721050 -0.914961 5.759490 13.393538 5.353836 3.412283 1.822501 -14.090392 8.154032 6.245790 0.310181 -2.081239 -6.845943 -4.129646 
-15.598715 52.518272 13.809258 6.328125 2.792969 -42.753429 21.722126 -6.639977 -3.826689 -14.199219 15.742189 7.861328 51.553619 8.070152 2.616707 -39.638676 4.023438 -17.812504 2.000000 -2.000000 0.000000 -69.697266 22.294922 -11.695512 -128.287796 1.671225 -2.763588 -62.093727 6.557693 -11.800600 -2.000000 2.000000 0.000000 88.476563 -16.767578 -6.955942 51.493099 1.489054 -1.934093 3.873435 -56.660851 1.601043 -16.438669 6.881091 6.201686 4.007448 -5.754413 -0.708138 2.708095 14.403079 6.317418 3.854957 1.756247 -13.354869 8.298855 5.844212 0.925485 -1.979624 -6.549843 -3.299262 
